<?xml version="1.0" standalone="no"?>
<!DOCTYPE svg PUBLIC "-//W3C//DTD SVG 20010904//EN"
 "http://www.w3.org/TR/2001/REC-SVG-20010904/DTD/svg10.dtd">
<svg version="1.0" xmlns="http://www.w3.org/2000/svg"
 width="300.000000pt" height="295.000000pt" viewBox="0 0 300.000000 295.000000"
 preserveAspectRatio="xMidYMid meet">
<metadata>
Created by potrace 1.10, written by Peter Selinger 2001-2011
</metadata>
<g transform="translate(0.000000,295.000000) scale(0.100000,-0.100000)"
fill="#000000" stroke="none">
<path d="M1210 2923 c-445 -79 -848 -381 -1055 -791 -78 -155 -145 -392 -145
-515 0 -69 18 -30 40 83 81 435 282 739 650 987 157 106 368 179 652 227 21 4
40 11 43 16 9 14 -86 11 -185 -7z"/>
<path d="M1617 2929 c6 -6 57 -19 114 -29 130 -23 235 -52 319 -86 343 -140
615 -390 768 -707 69 -141 103 -247 131 -400 20 -117 41 -162 41 -90 0 69 -29
213 -65 320 -149 445 -498 790 -947 937 -153 50 -393 87 -361 55z"/>
<path d="M1430 2873 c-348 -19 -679 -164 -930 -406 -183 -176 -314 -400 -379
-647 -34 -129 -42 -195 -42 -340 0 -238 53 -459 154 -640 16 -30 35 -64 41
-75 53 -96 211 -276 326 -371 337 -277 802 -381 1240 -277 303 71 606 270 799
523 87 115 202 341 231 455 67 260 71 495 13 710 -51 191 -151 397 -249 514
-11 13 -27 32 -37 44 -141 171 -378 340 -592 420 -168 63 -400 100 -575 90z
m380 -67 c534 -124 940 -535 1056 -1066 26 -120 26 -410 0 -530 -117 -538
-530 -949 -1077 -1072 -88 -20 -132 -23 -289 -23 -157 0 -201 3 -289 23 -556
125 -974 549 -1082 1097 -21 107 -18 398 5 505 116 536 540 959 1072 1069 139
29 149 30 334 26 131 -3 187 -9 270 -29z"/>
<path d="M1426 1830 c-21 -6 -113 -47 -205 -92 -117 -57 -182 -83 -221 -88
-30 -4 -91 -12 -135 -18 -44 -6 -118 -16 -164 -22 -46 -5 -95 -16 -110 -24
-265 -141 -265 -141 -258 -217 4 -42 1 -61 -10 -72 -13 -13 -11 -16 21 -27 20
-6 71 -18 114 -25 42 -8 94 -18 115 -23 l37 -10 0 79 c0 118 36 185 122 230
69 35 178 20 237 -34 41 -38 71 -115 71 -183 l0 -62 273 -6 c149 -4 350 -7
445 -9 l172 -2 0 59 c0 87 18 134 70 187 144 144 360 40 360 -173 0 -37 1 -68
3 -68 1 0 62 11 136 24 93 17 139 29 147 41 7 10 12 53 13 110 0 91 0 94 -35
139 -33 44 -34 47 -18 70 8 14 13 29 10 34 -3 6 -34 7 -70 5 -43 -4 -79 0
-112 10 -27 9 -65 18 -84 20 -19 2 -106 27 -193 55 -233 76 -322 93 -522 97
-93 3 -187 0 -209 -5z m279 -40 c49 -6 90 -12 91 -13 2 -1 -9 -35 -23 -74
l-25 -71 -172 -1 c-94 -1 -196 -4 -227 -7 -56 -6 -56 -6 -62 22 -6 33 -2 36
106 94 107 58 164 67 312 50z m262 -56 c109 -32 155 -55 141 -69 -6 -6 -288
-28 -294 -23 -2 2 0 20 5 39 5 19 12 46 15 62 4 15 8 27 11 27 2 0 57 -16 122
-36z m-686 -25 c-28 -30 -27 -70 3 -98 23 -22 26 -22 237 -15 163 5 220 10
238 21 19 13 27 13 47 2 19 -10 54 -10 159 -3 122 9 136 12 154 33 16 18 18
28 10 42 -13 25 -11 24 106 -10 135 -39 221 -61 275 -70 l45 -7 -53 -12 c-29
-7 -61 -12 -71 -12 -11 0 -29 -9 -42 -19 l-24 -20 21 -21 c20 -21 92 -37 187
-42 27 -1 51 -6 54 -11 8 -14 -10 -27 -41 -29 -15 -1 -32 -10 -36 -19 -8 -14
-3 -15 35 -9 25 4 47 5 50 2 12 -12 -10 -22 -48 -22 -46 0 -41 -16 8 -23 23
-3 29 -9 27 -23 -5 -29 -15 -35 -84 -50 -126 -27 -148 -20 -148 49 0 48 -43
129 -86 166 -46 37 -132 65 -177 57 -18 -3 -42 -8 -55 -10 -35 -7 -98 -57
-127 -101 -28 -43 -42 -87 -47 -150 l-4 -40 -164 0 c-91 -1 -275 2 -410 5
l-245 5 -7 61 c-12 111 -69 188 -166 225 -52 19 -63 20 -121 9 -44 -7 -76 -21
-101 -40 -48 -38 -56 -29 -15 14 30 32 37 34 136 45 229 25 241 28 370 91 68
32 125 58 127 55 2 -2 -5 -14 -17 -26z m-651 -161 c-19 -16 -56 -41 -82 -54
-46 -23 -62 -44 -35 -44 8 0 36 11 62 25 27 13 51 23 53 20 2 -2 -7 -28 -21
-57 -14 -29 -28 -80 -31 -112 -3 -33 -7 -61 -9 -62 -4 -5 -176 24 -187 31 -6
3 -10 19 -10 36 0 22 5 29 19 29 10 0 29 9 42 19 23 20 24 21 7 51 -17 30 -17
31 8 40 14 6 29 8 33 5 4 -2 23 12 42 32 34 35 128 87 139 77 3 -3 -11 -19
-30 -36z m1967 0 c13 -12 23 -25 23 -30 0 -11 -188 2 -220 15 -21 9 -12 12 65
22 50 7 94 13 99 14 6 0 20 -9 33 -21z m-2167 -142 c-18 -16 -80 -29 -80 -16
0 14 32 29 65 30 25 0 27 -2 15 -14z"/>
<path d="M760 1493 c-138 -52 -148 -259 -14 -323 132 -64 277 49 250 195 -8
40 -55 99 -97 121 -27 14 -109 18 -139 7z m133 -83 c41 -36 52 -78 33 -125
-30 -72 -121 -93 -175 -41 -106 102 32 263 142 166z"/>
<path d="M2098 1490 c-70 -21 -128 -98 -128 -171 0 -111 117 -201 221 -170
171 51 173 293 1 341 -42 11 -56 11 -94 0z m121 -86 c78 -65 31 -194 -71 -194
-79 0 -132 72 -108 145 24 74 119 100 179 49z"/>
<path d="M10 1334 c0 -69 29 -213 65 -321 160 -478 551 -840 1042 -964 124
-31 304 -50 269 -28 -11 6 -65 20 -121 29 -97 17 -168 34 -210 50 -11 4 -38
13 -60 20 -112 35 -311 144 -410 224 -213 173 -358 367 -454 610 -42 104 -91
298 -91 357 0 14 -7 34 -15 45 -13 18 -14 16 -15 -22z"/>
<path d="M2973 1350 c-6 -14 -19 -66 -27 -116 -22 -126 -58 -247 -105 -349
-38 -81 -100 -191 -128 -225 -6 -8 -32 -42 -57 -75 -46 -62 -154 -171 -241
-241 -95 -78 -300 -190 -410 -224 -22 -7 -49 -16 -60 -21 -37 -15 -189 -49
-245 -56 -30 -3 -66 -12 -80 -20 -43 -24 131 -7 263 26 264 67 492 197 686
392 163 162 284 356 355 569 39 116 69 271 64 328 -3 36 -4 37 -15 12z"/>
</g>
</svg>
